<svg version="1.1" xmlns="http://www.w3.org/2000/svg" viewBox="-1 0 31 38">
  <g fill="currentColor">
    <path d="M-0.1,7.9V38l14.5-7.3L29,38V7.9L14.5,0.7L-0.1,7.9z M27.2,35.1l-12.8-6.4L1.7,35.1V9l12.8-6.4L27.2,9V35.1z"/>
    <path d="M5.3,29.8l2.9-1.3v-7.3l4.6-2.3V16l-4.6,2.3v-5.4l6.2-3.1v15.8l2.4,1.2l0,0l3.7,1.8c0,0,3.7,0.8,3.9-3.3 c0.2-3-0.7-4.1-1.4-5.2c0.6-0.5,1.4-2,1.4-3.7c0-5.3-3.9-6.6-3.9-6.6l-3.3-1.6l0,0l-2.7-1.3l-9.2,4.5C5.3,11.4,5.3,29.8,5.3,29.8z M17.2,10.8l3.3,1.6c0.1,0,0.1,0.1,0.2,0.1c0.3,0.2,1.6,1.3,1.5,3.7c0,1.9-1,1.8-1.4,1.6c-0.1-0.1-0.2-0.1-0.2-0.1l-3.3-1.6v-5.3 H17.2z M17.2,18.8l3.2,1.6c0.1,0,0.2,0.1,0.2,0.2c0.4,0.3,1.5,1.4,1.5,3.7c-0.1,2.4-1.6,1.6-1.6,1.6l-3.3-1.6 C17.2,24.3,17.2,18.8,17.2,18.8z"/>
  </g>
</svg>
